<?xml version='1.0' encoding='utf-8'?>
<svg width="280.84mm" height="234.25mm" viewBox="0.0 0.0 280.84 234.25" xmlns="http://www.w3.org/2000/svg" xmlns:dc="http://purl.org/dc/elements/1.1/" xmlns:cc="http://creativecommons.org/ns#" xmlns:rdf="http://www.w3.org/1999/02/22-rdf-syntax-ns#" xmlns:svg="http://www.w3.org/2000/svg" xmlns:xlink="http://www.w3.org/1999/xlink" xmlns:inkscape="http://www.inkscape.org/namespaces/inkscape">
<!--
SmallPartsTray - Tray with slants to easier get out game tokens or screws

Created with box.LaserBiz.ru (https://box.LaserBiz.ru)
Creation date: 2026-06-10 09:41:35
Command line (remove spaces between dashes): boxes SmallPartsTray - -sx=150/1 - -h=50 - -thickness=4
Url: https://box.laserbiz.ru/site.wsgi/SmallPartsTray?FingerJoint_angle=90.0&FingerJoint_style=rectangular&FingerJoint_surroundingspaces=2.0&FingerJoint_bottom_lip=0.0&FingerJoint_edge_width=1.0&FingerJoint_extra_length=0.0&FingerJoint_finger=2.0&FingerJoint_play=0.0&FingerJoint_space=2.0&FingerJoint_width=1.0&Lid_handle=none&Lid_style=none&Lid_handle_height=8.0&Lid_height=4.0&Lid_play=0.1&sx=150%2F1&y=100&h=50&outside=0&outside=1&angle=45.0&rampheight=0.5&two_sided=0&two_sided=1&front_panel=0&front_panel=1&thickness=4&format=svg&tabs=0.0&qr_code=0&debug=0&labels=0&labels=1&reference=0&inner_corners=corner&burn=0.1&language=ru&render=1
Url short: https://box.laserbiz.ru/site.wsgi/SmallPartsTray?sx=150%2F1&h=50&thickness=4
SettingsUrl: https://box.laserbiz.ru/site.wsgi/SmallPartsTray?FingerJoint_angle=90.0&FingerJoint_style=rectangular&FingerJoint_surroundingspaces=2.0&FingerJoint_bottom_lip=0.0&FingerJoint_edge_width=1.0&FingerJoint_extra_length=0.0&FingerJoint_finger=2.0&FingerJoint_play=0.0&FingerJoint_space=2.0&FingerJoint_width=1.0&Lid_handle=none&Lid_style=none&Lid_handle_height=8.0&Lid_height=4.0&Lid_play=0.1&sx=150%2F1&y=100&h=50&outside=0&outside=1&angle=45.0&rampheight=0.5&two_sided=0&two_sided=1&front_panel=0&front_panel=1&thickness=4&format=svg&tabs=0.0&qr_code=0&debug=0&labels=0&labels=1&reference=0&inner_corners=corner&burn=0.1&language=ru
SettingsUrl short: https://box.laserbiz.ru/site.wsgi/SmallPartsTray?sx=150%2F1&h=50&thickness=4
-->
<title>SmallPartsTray</title>
<metadata>
<rdf:RDF><cc:Work>
<dc:title>Tray - SmallPartsTray</dc:title>
<dc:date>2026-06-10 09:41:35</dc:date>
<dc:source>https://box.laserbiz.ru/site.wsgi/SmallPartsTray?FingerJoint_angle=90.0&amp;FingerJoint_style=rectangular&amp;FingerJoint_surroundingspaces=2.0&amp;FingerJoint_bottom_lip=0.0&amp;FingerJoint_edge_width=1.0&amp;FingerJoint_extra_length=0.0&amp;FingerJoint_finger=2.0&amp;FingerJoint_play=0.0&amp;FingerJoint_space=2.0&amp;FingerJoint_width=1.0&amp;Lid_handle=none&amp;Lid_style=none&amp;Lid_handle_height=8.0&amp;Lid_height=4.0&amp;Lid_play=0.1&amp;sx=150%2F1&amp;y=100&amp;h=50&amp;outside=0&amp;outside=1&amp;angle=45.0&amp;rampheight=0.5&amp;two_sided=0&amp;two_sided=1&amp;front_panel=0&amp;front_panel=1&amp;thickness=4&amp;format=svg&amp;tabs=0.0&amp;qr_code=0&amp;debug=0&amp;labels=0&amp;labels=1&amp;reference=0&amp;inner_corners=corner&amp;burn=0.1&amp;language=ru&amp;render=1</dc:source>
<dc:source>https://box.laserbiz.ru/site.wsgi/SmallPartsTray?sx=150%2F1&amp;h=50&amp;thickness=4</dc:source>
<dc:description>Tray with slants to easier get out game tokens or screws

Created with box.LaserBiz.ru (https://box.LaserBiz.ru)
Command line: boxes SmallPartsTray --FingerJoint_angle=90.0 --FingerJoint_style=rectangular --FingerJoint_surroundingspaces=2.0 --FingerJoint_bottom_lip=0.0 --FingerJoint_edge_width=1.0 --FingerJoint_extra_length=0.0 --FingerJoint_finger=2.0 --FingerJoint_play=0.0 --FingerJoint_space=2.0 --FingerJoint_width=1.0 --Lid_handle=none --Lid_style=none --Lid_handle_height=8.0 --Lid_height=4.0 --Lid_play=0.1 --sx=150/1 --y=100 --h=50 --outside=0 --outside=1 --angle=45.0 --rampheight=0.5 --two_sided=0 --two_sided=1 --front_panel=0 --front_panel=1 --thickness=4 --format=svg --tabs=0.0 --qr_code=0 --debug=0 --labels=0 --labels=1 --reference=0 --inner_corners=corner --burn=0.1
Command line short: boxes SmallPartsTray --sx=150/1 --h=50 --thickness=4
Url: https://box.laserbiz.ru/site.wsgi/SmallPartsTray?FingerJoint_angle=90.0&amp;FingerJoint_style=rectangular&amp;FingerJoint_surroundingspaces=2.0&amp;FingerJoint_bottom_lip=0.0&amp;FingerJoint_edge_width=1.0&amp;FingerJoint_extra_length=0.0&amp;FingerJoint_finger=2.0&amp;FingerJoint_play=0.0&amp;FingerJoint_space=2.0&amp;FingerJoint_width=1.0&amp;Lid_handle=none&amp;Lid_style=none&amp;Lid_handle_height=8.0&amp;Lid_height=4.0&amp;Lid_play=0.1&amp;sx=150%2F1&amp;y=100&amp;h=50&amp;outside=0&amp;outside=1&amp;angle=45.0&amp;rampheight=0.5&amp;two_sided=0&amp;two_sided=1&amp;front_panel=0&amp;front_panel=1&amp;thickness=4&amp;format=svg&amp;tabs=0.0&amp;qr_code=0&amp;debug=0&amp;labels=0&amp;labels=1&amp;reference=0&amp;inner_corners=corner&amp;burn=0.1&amp;language=ru&amp;render=1
Url short: https://box.laserbiz.ru/site.wsgi/SmallPartsTray?sx=150%2F1&amp;h=50&amp;thickness=4
SettingsUrl: https://box.laserbiz.ru/site.wsgi/SmallPartsTray?FingerJoint_angle=90.0&amp;FingerJoint_style=rectangular&amp;FingerJoint_surroundingspaces=2.0&amp;FingerJoint_bottom_lip=0.0&amp;FingerJoint_edge_width=1.0&amp;FingerJoint_extra_length=0.0&amp;FingerJoint_finger=2.0&amp;FingerJoint_play=0.0&amp;FingerJoint_space=2.0&amp;FingerJoint_width=1.0&amp;Lid_handle=none&amp;Lid_style=none&amp;Lid_handle_height=8.0&amp;Lid_height=4.0&amp;Lid_play=0.1&amp;sx=150%2F1&amp;y=100&amp;h=50&amp;outside=0&amp;outside=1&amp;angle=45.0&amp;rampheight=0.5&amp;two_sided=0&amp;two_sided=1&amp;front_panel=0&amp;front_panel=1&amp;thickness=4&amp;format=svg&amp;tabs=0.0&amp;qr_code=0&amp;debug=0&amp;labels=0&amp;labels=1&amp;reference=0&amp;inner_corners=corner&amp;burn=0.1&amp;language=ru
SettingsUrl short: https://box.laserbiz.ru/site.wsgi/SmallPartsTray?sx=150%2F1&amp;h=50&amp;thickness=4
</dc:description>
</cc:Work></rdf:RDF></metadata>
<g id="p-0" style="fill:none;stroke-linecap:round;stroke-linejoin:round;">
  <path d="M 25.529 208.725 L 28.287 211.482 L 25.600 214.169 L 20.085 208.654 L 22.772 205.967 L 25.529 208.725 Z" stroke="rgb(0,0,255)" stroke-width="0.20" />
  <path d="M 97.358 211.412 L 94.600 214.169 L 91.913 211.482 L 97.428 205.967 L 100.115 208.654 L 97.358 211.412 Z" stroke="rgb(0,0,255)" stroke-width="0.20" />
  <path d="M 14.100 224.254 H 37.100 H 48.100 C 48.155 224.254 48.200 224.209 48.200 224.154 V 220.254 H 56.000 V 224.154 C 56.000 224.209 56.045 224.254 56.100 224.254 H 64.100 C 64.155 224.254 64.200 224.209 64.200 224.154 V 220.254 H 72.000 V 224.154 C 72.000 224.209 72.045 224.254 72.100 224.254 H 83.100 H 106.100 H 110.100 C 110.155 224.254 110.200 224.209 110.200 224.154 V 220.154 V 197.154 V 189.654 C 110.200 189.599 110.155 189.554 110.100 189.554 H 106.200 V 181.754 H 110.100 C 110.155 181.754 110.200 181.709 110.200 181.654 V 174.154 C 110.200 174.099 110.155 174.054 110.100 174.054 H 106.100 H 14.100 H 10.100 C 10.045 174.054 10.000 174.099 10.000 174.154 V 181.654 C 10.000 181.709 10.045 181.754 10.100 181.754 H 14.000 V 189.554 H 10.100 C 10.045 189.554 10.000 189.599 10.000 189.654 V 197.154 V 220.154 V 224.154 C 10.000 224.209 10.045 224.254 10.100 224.254 H 14.100 Z" stroke="rgb(0,0,0)" stroke-width="0.20" />
</g>
<g id="p-1" style="fill:none;stroke-linecap:round;stroke-linejoin:round;">
  <path d="M 94.671 156.525 L 91.913 159.282 L 94.600 161.969 L 100.115 156.454 L 97.428 153.767 L 94.671 156.525 Z" stroke="rgb(0,0,255)" stroke-width="0.20" />
  <path d="M 22.842 159.212 L 25.600 161.969 L 28.287 159.282 L 22.772 153.767 L 20.085 156.454 L 22.842 159.212 Z" stroke="rgb(0,0,255)" stroke-width="0.20" />
  <path d="M 106.100 172.054 H 83.100 H 72.100 C 72.045 172.054 72.000 172.009 72.000 171.954 V 168.054 H 64.200 V 171.954 C 64.200 172.009 64.155 172.054 64.100 172.054 H 56.100 C 56.045 172.054 56.000 172.009 56.000 171.954 V 168.054 H 48.200 V 171.954 C 48.200 172.009 48.155 172.054 48.100 172.054 H 37.100 H 14.100 H 10.100 C 10.045 172.054 10.000 172.009 10.000 171.954 V 167.954 V 144.954 V 137.454 C 10.000 137.399 10.045 137.354 10.100 137.354 H 14.000 V 129.554 H 10.100 C 10.045 129.554 10.000 129.509 10.000 129.454 V 121.954 C 10.000 121.899 10.045 121.854 10.100 121.854 H 14.100 H 106.100 H 110.100 C 110.155 121.854 110.200 121.899 110.200 121.954 V 129.454 C 110.200 129.509 110.155 129.554 110.100 129.554 H 106.200 V 137.354 H 110.100 C 110.155 137.354 110.200 137.399 110.200 137.454 V 144.954 V 167.954 V 171.954 C 110.200 172.009 110.155 172.054 110.100 172.054 H 106.100 Z" stroke="rgb(0,0,0)" stroke-width="0.20" />
</g>
<g id="p-2" style="fill:none;stroke-linecap:round;stroke-linejoin:round;">
  <path d="M 116.300 224.254 H 258.300 C 258.355 224.254 258.400 224.209 258.400 224.154 V 216.754 H 262.300 C 262.355 216.754 262.400 216.709 262.400 216.654 V 208.654 C 262.400 208.599 262.355 208.554 262.300 208.554 H 258.400 V 201.154 C 258.400 201.099 258.355 201.054 258.300 201.054 H 116.300 C 116.245 201.054 116.200 201.099 116.200 201.154 V 208.554 H 112.300 C 112.245 208.554 112.200 208.599 112.200 208.654 V 216.654 C 112.200 216.709 112.245 216.754 112.300 216.754 H 116.200 V 224.154 C 116.200 224.209 116.245 224.254 116.300 224.254 Z" stroke="rgb(0,0,0)" stroke-width="0.20" />
</g>
<g id="p-3" style="fill:none;stroke-linecap:round;stroke-linejoin:round;">
  <path d="M 116.300 199.054 H 258.300 C 258.355 199.054 258.400 199.009 258.400 198.954 V 186.790 H 262.300 C 262.355 186.790 262.400 186.746 262.400 186.690 V 178.690 C 262.400 178.635 262.355 178.590 262.300 178.590 H 258.400 V 166.427 C 258.400 166.372 258.355 166.327 258.300 166.327 H 116.300 C 116.245 166.327 116.200 166.372 116.200 166.427 V 178.590 H 112.300 C 112.245 178.590 112.200 178.635 112.200 178.690 V 186.690 C 112.200 186.746 112.245 186.790 112.300 186.790 H 116.200 V 198.954 C 116.200 199.009 116.245 199.054 116.300 199.054 Z" stroke="rgb(0,0,0)" stroke-width="0.20" />
</g>
<g id="p-4" style="fill:none;stroke-linecap:round;stroke-linejoin:round;">
  <path d="M 116.300 164.327 H 258.300 C 258.355 164.327 258.400 164.282 258.400 164.227 V 153.327 H 262.300 C 262.355 153.327 262.400 153.282 262.400 153.227 V 145.227 C 262.400 145.172 262.355 145.127 262.300 145.127 H 258.400 V 137.327 H 262.300 C 262.355 137.327 262.400 137.282 262.400 137.227 V 129.227 C 262.400 129.172 262.355 129.127 262.300 129.127 H 258.400 V 118.227 C 258.400 118.172 258.355 118.127 258.300 118.127 H 116.300 C 116.245 118.127 116.200 118.172 116.200 118.227 V 129.127 H 112.300 C 112.245 129.127 112.200 129.172 112.200 129.227 V 137.227 C 112.200 137.282 112.245 137.327 112.300 137.327 H 116.200 V 145.127 H 112.300 C 112.245 145.127 112.200 145.172 112.200 145.227 V 153.227 C 112.200 153.282 112.245 153.327 112.300 153.327 H 116.200 V 164.227 C 116.200 164.282 116.245 164.327 116.300 164.327 Z" stroke="rgb(0,0,0)" stroke-width="0.20" />
</g>
<g id="p-5" style="fill:none;stroke-linecap:round;stroke-linejoin:round;">
  <path d="M 116.300 116.127 H 258.300 C 258.355 116.127 258.400 116.082 258.400 116.027 V 103.863 H 262.300 C 262.355 103.863 262.400 103.819 262.400 103.763 V 95.763 C 262.400 95.708 262.355 95.663 262.300 95.663 H 258.400 V 83.500 C 258.400 83.445 258.355 83.400 258.300 83.400 H 116.300 C 116.245 83.400 116.200 83.445 116.200 83.500 V 95.663 H 112.300 C 112.245 95.663 112.200 95.708 112.200 95.763 V 103.763 C 112.200 103.819 112.245 103.863 112.300 103.863 H 116.200 V 116.027 C 116.200 116.082 116.245 116.127 116.300 116.127 Z" stroke="rgb(0,0,0)" stroke-width="0.20" />
</g>
<g id="p-6" style="fill:none;stroke-linecap:round;stroke-linejoin:round;">
  <path d="M 116.300 81.400 H 258.300 C 258.355 81.400 258.400 81.355 258.400 81.300 V 73.900 H 262.300 C 262.355 73.900 262.400 73.855 262.400 73.800 V 65.800 C 262.400 65.745 262.355 65.700 262.300 65.700 H 258.400 V 58.300 C 258.400 58.245 258.355 58.200 258.300 58.200 H 116.300 C 116.245 58.200 116.200 58.245 116.200 58.300 V 65.700 H 112.300 C 112.245 65.700 112.200 65.745 112.200 65.800 V 73.800 C 112.200 73.855 112.245 73.900 112.300 73.900 H 116.200 V 81.300 C 116.200 81.355 116.245 81.400 116.300 81.400 Z" stroke="rgb(0,0,0)" stroke-width="0.20" />
</g>
<g id="p-7" style="fill:none;stroke-linecap:round;stroke-linejoin:round;">
  <path d="M 116.300 56.200 H 250.300 C 250.355 56.200 250.400 56.155 250.400 56.100 V 52.200 H 254.300 C 254.355 52.200 254.400 52.155 254.400 52.100 V 10.100 C 254.400 10.045 254.355 10.000 254.300 10.000 H 112.300 C 112.245 10.000 112.200 10.045 112.200 10.100 V 52.100 C 112.200 52.155 112.245 52.200 112.300 52.200 H 116.200 V 56.100 C 116.200 56.155 116.245 56.200 116.300 56.200 Z" stroke="rgb(0,0,0)" stroke-width="0.20" />
</g>
<g id="p-8" style="fill:none;stroke-linecap:round;stroke-linejoin:round;">
  <path d="M 256.600 56.200 H 267.914 C 267.933 56.200 267.953 56.194 267.969 56.183 C 267.986 56.172 267.999 56.157 268.006 56.138 C 268.014 56.120 268.016 56.100 268.012 56.080 C 268.008 56.061 267.998 56.043 267.984 56.029 L 265.227 53.272 L 267.914 50.585 L 270.671 53.342 C 270.685 53.356 270.703 53.366 270.723 53.370 C 270.742 53.374 270.762 53.372 270.780 53.364 C 270.799 53.356 270.814 53.344 270.825 53.327 C 270.836 53.311 270.842 53.291 270.842 53.272 V 41.958 C 270.842 41.938 270.836 41.919 270.825 41.902 C 270.814 41.886 270.799 41.873 270.780 41.865 C 270.762 41.858 270.742 41.856 270.723 41.860 C 270.703 41.864 270.685 41.873 270.671 41.887 L 256.529 56.029 C 256.515 56.043 256.506 56.061 256.502 56.080 C 256.498 56.100 256.500 56.120 256.508 56.138 C 256.515 56.157 256.528 56.172 256.544 56.183 C 256.561 56.194 256.580 56.200 256.600 56.200 Z M 270.671 41.887 C 270.685 41.873 270.695 41.855 270.699 41.836 C 270.703 41.817 270.701 41.796 270.693 41.778 C 270.686 41.760 270.673 41.744 270.656 41.733 C 270.640 41.722 270.620 41.716 270.601 41.716 H 259.287 C 259.267 41.716 259.248 41.722 259.231 41.733 C 259.215 41.744 259.202 41.760 259.195 41.778 C 259.187 41.796 259.185 41.817 259.189 41.836 C 259.193 41.855 259.202 41.873 259.216 41.887 L 261.974 44.645 L 259.287 47.332 L 256.529 44.574 C 256.515 44.560 256.497 44.551 256.478 44.547 C 256.459 44.543 256.439 44.545 256.420 44.552 C 256.402 44.560 256.386 44.573 256.375 44.589 C 256.364 44.606 256.359 44.625 256.359 44.645 V 55.959 C 256.359 55.978 256.364 55.998 256.375 56.014 C 256.386 56.031 256.402 56.043 256.420 56.051 C 256.439 56.059 256.459 56.061 256.478 56.057 C 256.497 56.053 256.515 56.043 256.529 56.029" stroke="rgb(0,0,0)" stroke-width="0.20" />
</g>
</svg>